<?xml version="1.0" encoding="utf-8"?>
<!-- Generator: Adobe Illustrator 17.0.0, SVG Export Plug-In . SVG Version: 6.00 Build 0)  -->
<!DOCTYPE svg PUBLIC "-//W3C//DTD SVG 1.1//EN" "http://www.w3.org/Graphics/SVG/1.1/DTD/svg11.dtd">
<svg version="1.1" id="Capa_1" xmlns="http://www.w3.org/2000/svg" xmlns:xlink="http://www.w3.org/1999/xlink" x="0px" y="0px"
	 width="544px" height="140px" viewBox="24.5 243.5 544 140" enable-background="new 24.5 243.5 544 140" xml:space="preserve">
<path display="none" d="M323,436.799L305.999,328l-17.001,108.799l-17.001-27.2l-17.001,27.2c0,0,25.738,27.2,51,27.2
	c25.738,0,51-27.2,51-27.2l-17.001-27.2L323,436.799z"/>
<g>
	<path fill="#0E436E" d="M86.284,270.478c-17.863,0-32.393,14.256-32.393,31.781c0,0.454,0.05,0.893,0.151,1.649
		c0,0.274,0.029,0.54,0.072,0.807c0.554,6.984,3.312,13.378,7.985,18.555l7.452,17.05c0.569,1.31,1.865,2.16,3.298,2.16h26.863
		c1.433,0,2.729-0.85,3.298-2.16l7.452-17.057c4.594-5.09,7.337-11.362,7.956-18.209c0.223-0.576,0.274-1.188,0.18-1.785
		c0.043-0.331,0.072-0.67,0.072-1.015C118.669,284.734,104.14,270.478,86.284,270.478z"/>
	<g>
		<path fill="#F59B1F" d="M111.325,303.519c0,0.029-0.007,0.065-0.007,0.094c-0.014,0.101-0.029,0.209-0.036,0.31
			c-0.396,5.63-2.642,10.779-6.502,14.883c-0.281,0.302-0.511,0.648-0.677,1.022l-6.747,15.451H75.203l-6.747-15.451
			c-0.166-0.374-0.396-0.72-0.677-1.022c-3.859-4.104-6.106-9.252-6.502-14.883c-0.007-0.065-0.022-0.144-0.036-0.231
			c0-0.057,0-0.115-0.007-0.173c-0.007-0.108-0.13-1.159-0.144-1.26c0-13.558,11.297-24.581,25.193-24.581
			s25.193,11.023,25.15,24.883C111.383,302.878,111.34,303.195,111.325,303.519z"/>
		<linearGradient id="SVGID_1_" gradientUnits="userSpaceOnUse" x1="86.2618" y1="277.6783" x2="86.2618" y2="335.2787">
			<stop  offset="0" style="stop-color:#FFFFFF;stop-opacity:0"/>
			<stop  offset="1" style="stop-color:#D40000"/>
		</linearGradient>
		<path fill="url(#SVGID_1_)" d="M111.325,303.519c0,0.029-0.007,0.065-0.007,0.094c-0.014,0.101-0.029,0.209-0.036,0.31
			c-0.396,5.63-2.642,10.779-6.502,14.883c-0.281,0.302-0.511,0.648-0.677,1.022l-6.747,15.451H75.203l-6.747-15.451
			c-0.166-0.374-0.396-0.72-0.677-1.022c-3.859-4.104-6.106-9.252-6.502-14.883c-0.007-0.065-0.022-0.144-0.036-0.231
			c0-0.057,0-0.115-0.007-0.173c-0.007-0.108-0.13-1.159-0.144-1.26c0-13.558,11.297-24.581,25.193-24.581
			s25.193,11.023,25.15,24.883C111.383,302.878,111.34,303.195,111.325,303.519z"/>
	</g>
	<path fill="#0E436E" d="M97.091,352.008h-21.6c-1.987,0-3.6,1.613-3.6,3.6c0,1.987,1.613,3.6,3.6,3.6h21.6
		c1.987,0,3.6-1.613,3.6-3.6C100.691,353.621,99.078,352.008,97.091,352.008z"/>
	<path fill="#0E436E" d="M93.491,364.078h-14.4c-1.987,0-3.6,1.613-3.6,3.6c0,1.987,1.613,3.6,3.6,3.6c0,3.974,3.225,7.2,7.2,7.2
		s7.2-3.225,7.2-7.2c1.987,0,3.6-1.613,3.6-3.6C97.091,365.691,95.478,364.078,93.491,364.078z"/>
	<path fill="#F5A623" d="M86.291,263.278c1.987,0,3.6-1.613,3.6-3.6v-7.2c0-1.987-1.613-3.6-3.6-3.6c-1.987,0-3.6,1.613-3.6,3.6v7.2
		C82.691,261.665,84.304,263.278,86.291,263.278z"/>
	<path fill="#F5A623" d="M136.691,299.278h-7.2c-1.987,0-3.6,1.613-3.6,3.6c0,1.987,1.613,3.6,3.6,3.6h7.2
		c1.987,0,3.6-1.613,3.6-3.6C140.291,300.891,138.678,299.278,136.691,299.278z"/>
	<path fill="#F5A623" d="M43.09,299.278h-7.2c-1.987,0-3.6,1.613-3.6,3.6c0,1.987,1.613,3.6,3.6,3.6h7.2c1.987,0,3.6-1.613,3.6-3.6
		C46.691,300.891,45.078,299.278,43.09,299.278z"/>
	<path fill="#F5A623" d="M58.29,274.877c1.404-1.404,1.404-3.687,0-5.09l-5.091-5.091c-1.404-1.404-3.687-1.404-5.09,0
		c-1.404,1.404-1.404,3.687,0,5.09l5.09,5.091C54.603,276.281,56.886,276.281,58.29,274.877z"/>
	<path fill="#F5A623" d="M124.919,264.257c-1.418-1.418-3.722-1.418-5.141,0l-5.148,5.141c-1.418,1.418-1.418,3.722,0,5.141
		c1.418,1.418,3.722,1.418,5.141,0l5.141-5.141C126.337,267.98,126.337,265.676,124.919,264.257z"/>
	<g>
		<g>
			<g id="XMLID_2_">
				<g>
					<polygon fill="#0E436E" points="109.778,322.837 109.778,346.837 62.679,346.837 62.679,322.837 86.229,300.924 					"/>
				</g>
				<g>
				</g>
			</g>
			<g id="XMLID_1_">
				<g>
					<polygon fill="#FFFFFF" points="103.276,325.64 103.276,340.756 68.758,340.756 68.758,325.64 86.017,310.01 					"/>
				</g>
				<g>
				</g>
			</g>
		</g>
		<g id="XMLID_3_">
			<g>
				<rect x="79.724" y="323.5" fill="#F5A623" width="5.402" height="5.485"/>
			</g>
			<g>
			</g>
		</g>
	</g>
	<g id="XMLID_4_">
		<g>
			<rect x="86.5" y="323.5" fill="#F5A623" width="5.402" height="5.485"/>
		</g>
		<g>
		</g>
	</g>
	<g id="XMLID_6_">
		<g>
			<rect x="79.724" y="330.277" fill="#F5A623" width="5.402" height="5.485"/>
		</g>
		<g>
		</g>
	</g>
	<g id="XMLID_5_">
		<g>
			<rect x="86.5" y="330.276" fill="#F5A623" width="5.402" height="5.485"/>
		</g>
		<g>
		</g>
	</g>
</g>
<g>
	<path fill="#F5A623" d="M160.934,310.572c0-1.502,1.216-2.718,2.718-2.718s2.718,1.216,2.718,2.718v0.25
		c1.323-1.788,3.147-3.112,5.973-3.112c4.471,0,8.727,3.505,8.727,9.908v0.071c0,6.402-4.185,9.908-8.727,9.908
		c-2.897,0-4.686-1.324-5.973-2.861v5.723c0,1.502-1.216,2.718-2.718,2.718s-2.718-1.216-2.718-2.718V310.572z M175.634,317.69
		v-0.071c0-3.183-2.146-5.293-4.686-5.293s-4.649,2.11-4.649,5.293v0.071c0,3.183,2.11,5.293,4.649,5.293
		S175.634,320.909,175.634,317.69z"/>
	<path fill="#F5A623" d="M183.927,321.731v-0.071c0-4.185,3.183-6.116,7.726-6.116c1.931,0,3.326,0.322,4.686,0.787v-0.322
		c0-2.253-1.395-3.505-4.113-3.505c-1.502,0-2.718,0.215-3.755,0.537c-0.322,0.107-0.537,0.143-0.787,0.143
		c-1.252,0-2.253-0.966-2.253-2.218c0-0.966,0.608-1.788,1.466-2.11c1.717-0.644,3.577-1.001,6.116-1.001
		c2.969,0,5.115,0.787,6.474,2.146c1.431,1.431,2.074,3.541,2.074,6.116v8.727c0,1.466-1.18,2.611-2.646,2.611
		c-1.574,0-2.611-1.108-2.611-2.253v-0.036c-1.324,1.467-3.147,2.433-5.794,2.433C186.896,327.598,183.927,325.523,183.927,321.731z
		 M196.41,320.48v-0.966c-0.93-0.429-2.146-0.715-3.469-0.715c-2.325,0-3.755,0.93-3.755,2.646v0.072
		c0,1.466,1.216,2.325,2.968,2.325C194.693,323.842,196.41,322.447,196.41,320.48z"/>
	<path fill="#F5A623" d="M206.886,332.569c-0.787-0.286-1.717-0.93-1.717-2.253c0-1.323,1.037-2.217,2.146-2.217
		c0.429,0,0.68,0.072,0.894,0.143c0.465,0.143,0.751,0.215,1.145,0.215c0.966,0,1.431-0.179,1.932-1.145l0.179-0.43l-6.545-15.165
		c-0.143-0.357-0.286-0.894-0.286-1.251c0-1.538,1.181-2.611,2.683-2.611c1.359,0,2.146,0.751,2.611,2.039l4.149,11.159
		l4.006-11.124c0.429-1.145,1.216-2.074,2.611-2.074c1.395,0,2.575,1.073,2.575,2.503c0,0.429-0.144,1.037-0.25,1.288l-6.688,16.059
		c-1.609,3.899-3.219,5.365-6.474,5.365C208.639,333.07,207.78,332.891,206.886,332.569z"/>
	<path fill="#F5A623" d="M235.282,327.669c-5.759,0-10.015-4.042-10.015-9.907v-0.072c0-5.472,3.898-9.979,9.478-9.979
		c6.402,0,9.228,5.258,9.228,9.228c0,1.574-1.109,2.611-2.54,2.611h-10.766c0.537,2.468,2.253,3.756,4.686,3.756
		c1.502,0,2.754-0.465,3.863-1.288c0.394-0.286,0.751-0.429,1.323-0.429c1.216,0,2.11,0.93,2.11,2.146
		c0,0.716-0.322,1.252-0.715,1.61C240.253,326.775,238.072,327.669,235.282,327.669z M238.787,316.152
		c-0.322-2.433-1.752-4.078-4.042-4.078c-2.253,0-3.72,1.609-4.149,4.078H238.787z"/>
	<path fill="#F5A623" d="M248.369,303.634c0-1.502,1.216-2.718,2.718-2.718c1.502,0,2.718,1.216,2.718,2.718v21.103
		c0,1.502-1.216,2.718-2.718,2.718c-1.502,0-2.718-1.216-2.718-2.718V303.634z"/>
	<path fill="#F5A623" d="M268.002,327.669c-5.758,0-10.015-4.042-10.015-9.907v-0.072c0-5.472,3.899-9.979,9.479-9.979
		c6.402,0,9.228,5.258,9.228,9.228c0,1.574-1.108,2.611-2.539,2.611h-10.766c0.537,2.468,2.253,3.756,4.686,3.756
		c1.502,0,2.754-0.465,3.863-1.288c0.394-0.286,0.751-0.429,1.323-0.429c1.216,0,2.11,0.93,2.11,2.146
		c0,0.716-0.322,1.252-0.715,1.61C272.974,326.775,270.792,327.669,268.002,327.669z M271.507,316.152
		c-0.322-2.433-1.752-4.078-4.042-4.078c-2.253,0-3.72,1.609-4.149,4.078H271.507z"/>
	<path fill="#F5A623" d="M279.908,317.762v-0.072c0-5.472,4.185-9.979,10.051-9.979c2.897,0,4.936,0.787,6.545,2.146
		c0.358,0.286,0.858,0.93,0.858,1.859c0,1.359-1.108,2.433-2.468,2.433c-0.715,0-1.252-0.286-1.574-0.537
		c-0.965-0.751-1.967-1.216-3.398-1.216c-2.718,0-4.649,2.396-4.649,5.222v0.071c0,2.933,1.896,5.293,4.864,5.293
		c1.431,0,2.54-0.5,3.577-1.323c0.286-0.215,0.823-0.501,1.466-0.501c1.288,0,2.289,1.038,2.289,2.325
		c0,0.715-0.322,1.288-0.787,1.717c-1.61,1.466-3.648,2.468-6.796,2.468C284.129,327.669,279.908,323.234,279.908,317.762z"/>
	<path fill="#F5A623" d="M302.152,321.803v-9.084h-0.179c-1.288,0-2.325-1.038-2.325-2.325s1.037-2.325,2.325-2.325h0.179v-2.396
		c0-1.502,1.216-2.718,2.718-2.718c1.502,0,2.719,1.216,2.719,2.718v2.396h2.396c1.288,0,2.325,1.037,2.325,2.325
		s-1.037,2.325-2.325,2.325h-2.396v8.19c0,1.252,0.536,1.86,1.752,1.86c0.179,0,0.537-0.036,0.644-0.036
		c1.217,0,2.254,1.001,2.254,2.253c0,0.966-0.644,1.753-1.395,2.039c-1.002,0.393-1.932,0.536-3.112,0.536
		C304.405,327.562,302.152,326.238,302.152,321.803z"/>
	<path fill="#F5A623" d="M316.098,310.572c0-1.502,1.217-2.718,2.719-2.718s2.719,1.216,2.719,2.718v0.858
		c0.786-1.859,2.074-3.576,3.684-3.576c1.681,0,2.646,1.108,2.646,2.646c0,1.431-0.93,2.289-2.039,2.54
		c-2.754,0.644-4.291,2.754-4.291,6.617v5.079c0,1.502-1.217,2.718-2.719,2.718s-2.719-1.216-2.719-2.718V310.572z"/>
	<path fill="#F5A623" d="M330.975,303.491c0-1.574,1.323-2.54,3.04-2.54s3.04,0.966,3.04,2.54v0.072c0,1.573-1.323,2.575-3.04,2.575
		s-3.04-1.002-3.04-2.575V303.491z M331.297,310.572c0-1.502,1.216-2.718,2.718-2.718c1.503,0,2.719,1.216,2.719,2.718v14.164
		c0,1.502-1.216,2.718-2.719,2.718c-1.502,0-2.718-1.216-2.718-2.718V310.572z"/>
	<path fill="#F5A623" d="M340.916,317.762v-0.072c0-5.472,4.185-9.979,10.051-9.979c2.896,0,4.936,0.787,6.545,2.146
		c0.357,0.286,0.858,0.93,0.858,1.859c0,1.359-1.108,2.433-2.468,2.433c-0.715,0-1.252-0.286-1.573-0.537
		c-0.966-0.751-1.968-1.216-3.398-1.216c-2.718,0-4.649,2.396-4.649,5.222v0.071c0,2.933,1.896,5.293,4.864,5.293
		c1.431,0,2.539-0.5,3.577-1.323c0.285-0.215,0.822-0.501,1.466-0.501c1.288,0,2.289,1.038,2.289,2.325
		c0,0.715-0.321,1.288-0.787,1.717c-1.609,1.466-3.647,2.468-6.795,2.468C345.137,327.669,340.916,323.234,340.916,317.762z"/>
	<path fill="#F5A623" d="M362.193,303.491c0-1.574,1.323-2.54,3.04-2.54s3.04,0.966,3.04,2.54v0.072c0,1.573-1.323,2.575-3.04,2.575
		s-3.04-1.002-3.04-2.575V303.491z M362.516,310.572c0-1.502,1.216-2.718,2.718-2.718c1.503,0,2.719,1.216,2.719,2.718v14.164
		c0,1.502-1.216,2.718-2.719,2.718c-1.502,0-2.718-1.216-2.718-2.718V310.572z"/>
	<path fill="#F5A623" d="M373.959,321.803v-9.084h-0.179c-1.288,0-2.325-1.038-2.325-2.325s1.037-2.325,2.325-2.325h0.179v-2.396
		c0-1.502,1.216-2.718,2.719-2.718c1.502,0,2.718,1.216,2.718,2.718v2.396h2.396c1.288,0,2.325,1.037,2.325,2.325
		s-1.037,2.325-2.325,2.325h-2.396v8.19c0,1.252,0.536,1.86,1.753,1.86c0.179,0,0.536-0.036,0.644-0.036
		c1.216,0,2.253,1.001,2.253,2.253c0,0.966-0.644,1.753-1.395,2.039c-1.002,0.393-1.932,0.536-3.111,0.536
		C376.213,327.562,373.959,326.238,373.959,321.803z"/>
	<path fill="#F5A623" d="M388.906,332.569c-0.787-0.286-1.717-0.93-1.717-2.253c0-1.323,1.037-2.217,2.146-2.217
		c0.429,0,0.679,0.072,0.894,0.143c0.465,0.143,0.751,0.215,1.145,0.215c0.966,0,1.431-0.179,1.932-1.145l0.179-0.43l-6.545-15.165
		c-0.144-0.357-0.286-0.894-0.286-1.251c0-1.538,1.18-2.611,2.683-2.611c1.358,0,2.146,0.751,2.61,2.039l4.149,11.159l4.006-11.124
		c0.429-1.145,1.216-2.074,2.61-2.074c1.396,0,2.575,1.073,2.575,2.503c0,0.429-0.143,1.037-0.25,1.288l-6.688,16.059
		c-1.609,3.899-3.219,5.365-6.474,5.365C390.659,333.07,389.801,332.891,388.906,332.569z"/>
	<path fill="#F5A623" d="M408.861,303.634c0-1.502,1.216-2.718,2.718-2.718s2.718,1.216,2.718,2.718v7.189
		c1.324-1.788,3.148-3.112,5.974-3.112c4.471,0,8.727,3.505,8.727,9.908v0.071c0,6.402-4.185,9.908-8.727,9.908
		c-2.897,0-4.686-1.324-5.974-2.861v0.036c0,1.466-1.216,2.682-2.718,2.682s-2.718-1.216-2.718-2.718V303.634z M423.561,317.69
		v-0.071c0-3.183-2.146-5.293-4.686-5.293c-2.539,0-4.649,2.11-4.649,5.293v0.071c0,3.183,2.11,5.293,4.649,5.293
		C421.415,322.983,423.561,320.909,423.561,317.69z"/>
	<path fill="#F5A623" d="M432.927,303.491c0-1.574,1.323-2.54,3.04-2.54s3.041,0.966,3.041,2.54v0.072
		c0,1.573-1.324,2.575-3.041,2.575s-3.04-1.002-3.04-2.575V303.491z M433.249,310.572c0-1.502,1.216-2.718,2.718-2.718
		c1.503,0,2.719,1.216,2.719,2.718v14.164c0,1.502-1.216,2.718-2.719,2.718c-1.502,0-2.718-1.216-2.718-2.718V310.572z"/>
	<path fill="#F5A623" d="M444.049,303.634c0-1.502,1.216-2.718,2.718-2.718c1.503,0,2.719,1.216,2.719,2.718v21.103
		c0,1.502-1.216,2.718-2.719,2.718c-1.502,0-2.718-1.216-2.718-2.718V303.634z"/>
	<path fill="#F5A623" d="M454.848,303.634c0-1.502,1.216-2.718,2.718-2.718c1.503,0,2.719,1.216,2.719,2.718v21.103
		c0,1.502-1.216,2.718-2.719,2.718c-1.502,0-2.718-1.216-2.718-2.718V303.634z"/>
	<path fill="#F5A623" d="M464.896,325.416c-0.572-0.357-1.037-1.001-1.037-1.86c0-1.216,0.93-2.146,2.146-2.146
		c0.394,0,0.787,0.107,1.073,0.286c1.824,1.145,3.648,1.717,5.186,1.717c1.574,0,2.289-0.572,2.289-1.431v-0.071
		c0-1.18-1.859-1.574-3.97-2.218c-2.683-0.787-5.723-2.039-5.723-5.758v-0.071c0-3.899,3.147-6.081,7.011-6.081
		c2.003,0,4.077,0.537,5.937,1.466c0.787,0.394,1.288,1.109,1.288,2.039c0,1.216-0.966,2.146-2.182,2.146
		c-0.394,0-0.645-0.071-1.002-0.25c-1.538-0.751-3.004-1.216-4.148-1.216c-1.323,0-2.003,0.572-2.003,1.324v0.071
		c0,1.073,1.824,1.574,3.898,2.289c2.683,0.894,5.794,2.182,5.794,5.687v0.071c0,4.256-3.184,6.188-7.332,6.188
		C469.761,327.598,467.221,326.918,464.896,325.416z"/>
	<path fill="#F5A623" d="M486.031,321.303c1.789,0,3.112,1.323,3.112,3.04v0.071c0,1.717-1.323,3.04-3.112,3.04
		c-1.788,0-3.111-1.323-3.111-3.04v-0.071C482.92,322.626,484.243,321.303,486.031,321.303z"/>
	<path fill="#0E436E" d="M491.932,317.762v-0.072c0-5.472,4.185-9.979,10.051-9.979c2.896,0,4.936,0.787,6.545,2.146
		c0.357,0.286,0.858,0.93,0.858,1.859c0,1.359-1.108,2.433-2.468,2.433c-0.715,0-1.252-0.286-1.573-0.537
		c-0.966-0.751-1.968-1.216-3.398-1.216c-2.718,0-4.649,2.396-4.649,5.222v0.071c0,2.933,1.896,5.293,4.864,5.293
		c1.431,0,2.539-0.5,3.577-1.323c0.285-0.215,0.822-0.501,1.466-0.501c1.288,0,2.289,1.038,2.289,2.325
		c0,0.715-0.321,1.288-0.787,1.717c-1.609,1.466-3.647,2.468-6.795,2.468C496.152,327.669,491.932,323.234,491.932,317.762z"/>
	<path fill="#0E436E" d="M511.814,317.762v-0.072c0-5.508,4.436-9.979,10.408-9.979c5.938,0,10.337,4.399,10.337,9.908v0.071
		c0,5.508-4.436,9.979-10.408,9.979C516.214,327.669,511.814,323.27,511.814,317.762z M527.194,317.762v-0.072
		c0-2.826-2.039-5.293-5.043-5.293c-3.112,0-4.972,2.396-4.972,5.222v0.071c0,2.826,2.039,5.293,5.043,5.293
		C525.334,322.983,527.194,320.587,527.194,317.762z"/>
	<path fill="#0E436E" d="M536.488,310.572c0-1.502,1.217-2.718,2.719-2.718s2.719,1.216,2.719,2.718v0.215
		c1.251-1.609,2.896-3.076,5.65-3.076c2.504,0,4.399,1.109,5.401,3.041c1.681-1.967,3.684-3.041,6.295-3.041
		c4.041,0,6.474,2.433,6.474,7.046v9.979c0,1.502-1.217,2.718-2.719,2.718s-2.718-1.216-2.718-2.718v-8.191
		c0-2.575-1.145-3.898-3.184-3.898c-2.038,0-3.29,1.323-3.29,3.898v8.191c0,1.502-1.217,2.718-2.719,2.718s-2.718-1.216-2.718-2.718
		v-8.191c0-2.575-1.145-3.898-3.184-3.898s-3.29,1.323-3.29,3.898v8.191c0,1.502-1.217,2.718-2.719,2.718s-2.719-1.216-2.719-2.718
		V310.572z"/>
</g>
</svg>
