<?xml version="1.0" encoding="utf-8"?>
<!-- Generator: Adobe Illustrator 17.0.0, SVG Export Plug-In . SVG Version: 6.00 Build 0)  -->
<!DOCTYPE svg PUBLIC "-//W3C//DTD SVG 1.1//EN" "http://www.w3.org/Graphics/SVG/1.1/DTD/svg11.dtd">
<svg version="1.1" id="Layer_1" xmlns="http://www.w3.org/2000/svg" xmlns:xlink="http://www.w3.org/1999/xlink" x="0px" y="0px"
	 width="612px" height="792px" viewBox="0 0 612 792" enable-background="new 0 0 612 792" xml:space="preserve">
<g id="XMLID_1_">
	<g>
		<path fill="#0E436E" d="M512.86,104.96v582.08c0,8.26-6.7,14.96-14.96,14.96H114.1c-8.26,0-14.96-6.7-14.96-14.96V104.96
			c0-8.26,6.7-14.96,14.96-14.96h54.83c8.26,0,14.95,6.7,14.95,14.96v21.42h24.92v-21.42c0-8.26,6.69-14.96,14.95-14.96h54.83
			c8.26,0,14.96,6.7,14.96,14.96v21.42h24.92v-21.42c0-8.26,6.7-14.96,14.96-14.96h54.82c8.26,0,14.96,6.7,14.96,14.96v21.42h24.92
			v-21.42c0-8.26,6.7-14.96,14.95-14.96h54.83C506.16,90,512.86,96.7,512.86,104.96z M482.95,672.09V119.91h-24.92v21.43
			c0,8.26-6.7,14.95-14.95,14.95h-54.83c-8.26,0-14.96-6.69-14.96-14.95v-21.43h-24.92v21.43c0,8.26-6.69,14.95-14.95,14.95h-54.83
			c-8.26,0-14.96-6.69-14.96-14.95v-21.43h-24.92v21.43c0,8.26-6.69,14.95-14.95,14.95h-54.83c-8.26,0-14.96-6.69-14.96-14.95
			v-21.43h-24.92v552.18H482.95z"/>
		<path fill="#0E436E" d="M423.69,386.75c8.25,0,14.95,6.69,14.95,14.95c0,8.26-6.7,14.96-14.95,14.96H374.6
			c-8.25,0-14.95-6.7-14.95-14.96c0-8.26,6.7-14.95,14.95-14.95H423.69z"/>
		<path fill="#0E436E" d="M423.69,453.81c8.25,0,14.95,6.69,14.95,14.95c0,8.26-6.7,14.96-14.95,14.96H374.6
			c-8.25,0-14.95-6.7-14.95-14.96c0-8.26,6.7-14.95,14.95-14.95H423.69z"/>
		<path fill="#0E436E" d="M423.69,526.57c8.25,0,14.95,6.69,14.95,14.95s-6.7,14.96-14.95,14.96H188.32
			c-8.26,0-14.96-6.7-14.96-14.96s6.7-14.95,14.96-14.95H423.69z"/>
		<path fill="#0E436E" d="M423.69,599.33c8.25,0,14.95,6.69,14.95,14.95c0,8.26-6.7,14.96-14.95,14.96H374.6
			c-8.25,0-14.95-6.7-14.95-14.96c0-8.26,6.7-14.95,14.95-14.95H423.69z"/>
		<path fill="#0E436E" d="M306,193.79c38.99,0,69.52,22.55,69.52,51.34c0,28.78-30.53,51.33-69.52,51.33s-69.53-22.55-69.53-51.33
			C236.47,216.34,267.01,193.79,306,193.79z M345.61,245.13c0-10.12-16.94-21.43-39.61-21.43s-39.62,11.31-39.62,21.43
			c0,10.11,16.95,21.42,39.62,21.42S345.61,255.24,345.61,245.13z"/>
		<path fill="#F5A623" d="M306,223.7c22.67,0,39.61,11.31,39.61,21.43c0,10.11-16.94,21.42-39.61,21.42s-39.62-11.31-39.62-21.42
			C266.38,235.01,283.33,223.7,306,223.7z"/>
		<path fill="#0E436E" d="M272.7,336.62c8.26,0,14.95,6.69,14.95,14.95c0,8.26-6.69,14.96-14.95,14.96h-84.38
			c-8.26,0-14.96-6.7-14.96-14.96c0-8.26,6.7-14.95,14.96-14.95H272.7z"/>
		<path fill="#0E436E" d="M272.7,386.75c8.26,0,14.95,6.69,14.95,14.95c0,8.26-6.69,14.96-14.95,14.96h-84.38
			c-8.26,0-14.96-6.7-14.96-14.96c0-8.26,6.7-14.95,14.96-14.95H272.7z"/>
		<path fill="#0E436E" d="M272.7,453.81c8.26,0,14.95,6.69,14.95,14.95c0,8.26-6.69,14.96-14.95,14.96h-84.38
			c-8.26,0-14.96-6.7-14.96-14.96c0-8.26,6.7-14.95,14.96-14.95H272.7z"/>
	</g>
	<g>
	</g>
</g>
</svg>
